<mxfile host="app.diagrams.net" modified="2021-09-01T13:40:30.744Z" agent="5.0 (Windows)" etag="r_U1DrQtqG7B0lhOf1oK" version="15.0.4" type="github">
  <diagram id="Gzh1vEXdIfz71GAEQ342" name="Page-1">
    <mxGraphModel dx="5232" dy="2858" grid="1" gridSize="10" guides="1" tooltips="1" connect="1" arrows="1" fold="1" page="1" pageScale="1" pageWidth="1169" pageHeight="827" math="0" shadow="0">
      <root>
        <mxCell id="0" />
        <mxCell id="1" parent="0" />
        <mxCell id="9Nk0hv0ekXMGAtVD4ZqK-1" style="edgeStyle=orthogonalEdgeStyle;rounded=0;orthogonalLoop=1;jettySize=auto;html=1;exitX=1;exitY=0.5;exitDx=0;exitDy=0;fontSize=53;fontColor=#FF0000;" edge="1" parent="1" source="c1VsCLN2mkpz4TLPh9um-1" target="UjUhAZu07TOuGVpuegit-26">
          <mxGeometry relative="1" as="geometry" />
        </mxCell>
        <mxCell id="c1VsCLN2mkpz4TLPh9um-1" value="Submtted" style="rounded=1;whiteSpace=wrap;html=1;arcSize=50;" parent="1" vertex="1">
          <mxGeometry x="-200" y="414" width="120" height="60" as="geometry" />
        </mxCell>
        <mxCell id="UjUhAZu07TOuGVpuegit-44" style="edgeStyle=orthogonalEdgeStyle;rounded=0;orthogonalLoop=1;jettySize=auto;html=1;exitX=1;exitY=0.5;exitDx=0;exitDy=0;entryX=0;entryY=0.5;entryDx=0;entryDy=0;fontSize=17;" parent="1" source="c1VsCLN2mkpz4TLPh9um-2" target="UjUhAZu07TOuGVpuegit-1" edge="1">
          <mxGeometry relative="1" as="geometry" />
        </mxCell>
        <mxCell id="UjUhAZu07TOuGVpuegit-45" style="edgeStyle=orthogonalEdgeStyle;rounded=0;orthogonalLoop=1;jettySize=auto;html=1;exitX=0.5;exitY=0;exitDx=0;exitDy=0;entryX=0;entryY=0.5;entryDx=0;entryDy=0;fontSize=17;" parent="1" source="c1VsCLN2mkpz4TLPh9um-2" target="c1VsCLN2mkpz4TLPh9um-4" edge="1">
          <mxGeometry relative="1" as="geometry">
            <Array as="points">
              <mxPoint x="335" y="202" />
              <mxPoint x="410" y="202" />
            </Array>
          </mxGeometry>
        </mxCell>
        <mxCell id="UjUhAZu07TOuGVpuegit-47" style="edgeStyle=orthogonalEdgeStyle;rounded=0;orthogonalLoop=1;jettySize=auto;html=1;exitX=1;exitY=0;exitDx=0;exitDy=0;entryX=0;entryY=0.5;entryDx=0;entryDy=0;fontSize=17;" parent="1" source="c1VsCLN2mkpz4TLPh9um-2" target="c1VsCLN2mkpz4TLPh9um-5" edge="1">
          <mxGeometry relative="1" as="geometry" />
        </mxCell>
        <mxCell id="UjUhAZu07TOuGVpuegit-48" style="edgeStyle=orthogonalEdgeStyle;rounded=0;orthogonalLoop=1;jettySize=auto;html=1;exitX=1;exitY=1;exitDx=0;exitDy=0;entryX=0;entryY=0.586;entryDx=0;entryDy=0;entryPerimeter=0;fontSize=17;" parent="1" source="c1VsCLN2mkpz4TLPh9um-2" target="UjUhAZu07TOuGVpuegit-2" edge="1">
          <mxGeometry relative="1" as="geometry" />
        </mxCell>
        <mxCell id="UjUhAZu07TOuGVpuegit-49" style="edgeStyle=orthogonalEdgeStyle;rounded=0;orthogonalLoop=1;jettySize=auto;html=1;exitX=0.5;exitY=1;exitDx=0;exitDy=0;entryX=0;entryY=0.5;entryDx=0;entryDy=0;fontSize=17;" parent="1" source="c1VsCLN2mkpz4TLPh9um-2" target="UjUhAZu07TOuGVpuegit-3" edge="1">
          <mxGeometry relative="1" as="geometry" />
        </mxCell>
        <mxCell id="c1VsCLN2mkpz4TLPh9um-2" value="Type" style="rhombus;whiteSpace=wrap;html=1;" parent="1" vertex="1">
          <mxGeometry x="290" y="425" width="70" height="49" as="geometry" />
        </mxCell>
        <mxCell id="UjUhAZu07TOuGVpuegit-135" style="edgeStyle=orthogonalEdgeStyle;rounded=0;orthogonalLoop=1;jettySize=auto;html=1;exitX=1;exitY=0.5;exitDx=0;exitDy=0;entryX=0;entryY=0.5;entryDx=0;entryDy=0;fontSize=53;fontColor=#FF0000;" parent="1" source="c1VsCLN2mkpz4TLPh9um-4" target="UjUhAZu07TOuGVpuegit-15" edge="1">
          <mxGeometry relative="1" as="geometry" />
        </mxCell>
        <mxCell id="c1VsCLN2mkpz4TLPh9um-4" value="GIFTS" style="rounded=0;whiteSpace=wrap;html=1;" parent="1" vertex="1">
          <mxGeometry x="410" y="171.5" width="120" height="60" as="geometry" />
        </mxCell>
        <mxCell id="UjUhAZu07TOuGVpuegit-33" style="edgeStyle=orthogonalEdgeStyle;rounded=0;orthogonalLoop=1;jettySize=auto;html=1;exitX=1;exitY=0.5;exitDx=0;exitDy=0;fontSize=12;entryX=0.5;entryY=0;entryDx=0;entryDy=0;startArrow=none;" parent="1" source="9Nk0hv0ekXMGAtVD4ZqK-14" target="UjUhAZu07TOuGVpuegit-24" edge="1">
          <mxGeometry relative="1" as="geometry">
            <mxPoint x="1140" y="390" as="targetPoint" />
          </mxGeometry>
        </mxCell>
        <mxCell id="c1VsCLN2mkpz4TLPh9um-5" value="BUSINESS MEALS" style="rounded=0;whiteSpace=wrap;html=1;" parent="1" vertex="1">
          <mxGeometry x="410" y="299" width="120" height="60" as="geometry" />
        </mxCell>
        <mxCell id="UjUhAZu07TOuGVpuegit-133" style="edgeStyle=orthogonalEdgeStyle;rounded=0;orthogonalLoop=1;jettySize=auto;html=1;exitX=1;exitY=0.5;exitDx=0;exitDy=0;entryX=0;entryY=0.5;entryDx=0;entryDy=0;fontSize=53;fontColor=#FF0000;" parent="1" source="UjUhAZu07TOuGVpuegit-1" target="UjUhAZu07TOuGVpuegit-40" edge="1">
          <mxGeometry relative="1" as="geometry">
            <Array as="points">
              <mxPoint x="530" y="447" />
              <mxPoint x="540" y="447" />
            </Array>
          </mxGeometry>
        </mxCell>
        <mxCell id="UjUhAZu07TOuGVpuegit-1" value="ENTERTAINMENT AND HOSPITALITY" style="rounded=0;whiteSpace=wrap;html=1;" parent="1" vertex="1">
          <mxGeometry x="410" y="419" width="120" height="60" as="geometry" />
        </mxCell>
        <mxCell id="UjUhAZu07TOuGVpuegit-134" style="edgeStyle=orthogonalEdgeStyle;rounded=0;orthogonalLoop=1;jettySize=auto;html=1;exitX=1;exitY=0.5;exitDx=0;exitDy=0;fontSize=53;fontColor=#FF0000;entryX=0;entryY=0.5;entryDx=0;entryDy=0;" parent="1" source="UjUhAZu07TOuGVpuegit-2" target="UjUhAZu07TOuGVpuegit-91" edge="1">
          <mxGeometry relative="1" as="geometry">
            <mxPoint x="550" y="765.2352941176473" as="targetPoint" />
            <Array as="points">
              <mxPoint x="540" y="765" />
              <mxPoint x="540" y="768" />
            </Array>
          </mxGeometry>
        </mxCell>
        <mxCell id="UjUhAZu07TOuGVpuegit-2" value="ENTERTAINMENT AND HOSPITALITY AT&lt;br&gt;OUR SPONSORED EVENTS" style="rounded=0;whiteSpace=wrap;html=1;" parent="1" vertex="1">
          <mxGeometry x="410" y="730" width="120" height="70" as="geometry" />
        </mxCell>
        <mxCell id="UjUhAZu07TOuGVpuegit-3" value="&lt;div&gt;&lt;span style=&quot;white-space: pre&quot;&gt;CHARITABLE &lt;/span&gt;&lt;/div&gt;&lt;div&gt;&lt;span style=&quot;white-space: pre&quot;&gt;DONATIONS&lt;/span&gt;&lt;/div&gt;" style="rounded=0;html=1;whiteSpace=wrap;" parent="1" vertex="1">
          <mxGeometry x="410" y="850" width="120" height="60" as="geometry" />
        </mxCell>
        <mxCell id="UjUhAZu07TOuGVpuegit-4" value="Type" style="text;html=1;strokeColor=none;fillColor=none;align=center;verticalAlign=top;whiteSpace=wrap;rounded=0;fontSize=17;horizontal=1;" parent="1" vertex="1">
          <mxGeometry x="450" y="69" width="40" height="20" as="geometry" />
        </mxCell>
        <mxCell id="UjUhAZu07TOuGVpuegit-5" value="Value" style="text;html=1;strokeColor=none;fillColor=none;align=center;verticalAlign=top;whiteSpace=wrap;rounded=0;fontSize=17;horizontal=1;" parent="1" vertex="1">
          <mxGeometry x="610" y="69" width="40" height="20" as="geometry" />
        </mxCell>
        <mxCell id="UjUhAZu07TOuGVpuegit-6" value="More than once per year" style="text;html=1;strokeColor=none;fillColor=none;align=center;verticalAlign=top;whiteSpace=wrap;rounded=0;fontSize=17;horizontal=1;" parent="1" vertex="1">
          <mxGeometry x="740" y="59" width="110" height="40" as="geometry" />
        </mxCell>
        <mxCell id="UjUhAZu07TOuGVpuegit-8" value="Recipient" style="text;whiteSpace=wrap;html=1;fontSize=17;" parent="1" vertex="1">
          <mxGeometry x="50" y="79" width="140" height="40" as="geometry" />
        </mxCell>
        <mxCell id="UjUhAZu07TOuGVpuegit-10" value="OFFERING" style="text;html=1;strokeColor=none;fillColor=none;align=center;verticalAlign=middle;whiteSpace=wrap;rounded=0;fontSize=31;fontStyle=1" parent="1" vertex="1">
          <mxGeometry x="540" y="-70" width="40" height="20" as="geometry" />
        </mxCell>
        <mxCell id="UjUhAZu07TOuGVpuegit-12" value="&lt;div&gt;Approve&lt;/div&gt;&lt;div&gt;&lt;br&gt;&lt;/div&gt;" style="text;html=1;strokeColor=none;fillColor=none;align=center;verticalAlign=top;whiteSpace=wrap;rounded=0;fontSize=17;horizontal=1;" parent="1" vertex="1">
          <mxGeometry x="950" y="50" width="110" height="40" as="geometry" />
        </mxCell>
        <mxCell id="9Nk0hv0ekXMGAtVD4ZqK-7" style="edgeStyle=orthogonalEdgeStyle;rounded=0;orthogonalLoop=1;jettySize=auto;html=1;exitX=1;exitY=0.5;exitDx=0;exitDy=0;entryX=0;entryY=0.5;entryDx=0;entryDy=0;fontSize=53;fontColor=#FF0000;" edge="1" parent="1" source="UjUhAZu07TOuGVpuegit-13" target="9Nk0hv0ekXMGAtVD4ZqK-5">
          <mxGeometry relative="1" as="geometry" />
        </mxCell>
        <mxCell id="UjUhAZu07TOuGVpuegit-13" value="&lt;font style=&quot;font-size: 12px;&quot;&gt;Government&lt;/font&gt;" style="rounded=0;whiteSpace=wrap;html=1;fontSize=12;" parent="1" vertex="1">
          <mxGeometry x="130" y="1010" width="120" height="30" as="geometry" />
        </mxCell>
        <mxCell id="UjUhAZu07TOuGVpuegit-43" style="edgeStyle=orthogonalEdgeStyle;rounded=0;orthogonalLoop=1;jettySize=auto;html=1;exitX=1;exitY=0.5;exitDx=0;exitDy=0;entryX=0;entryY=0.5;entryDx=0;entryDy=0;fontSize=17;" parent="1" source="UjUhAZu07TOuGVpuegit-14" target="c1VsCLN2mkpz4TLPh9um-2" edge="1">
          <mxGeometry relative="1" as="geometry" />
        </mxCell>
        <mxCell id="UjUhAZu07TOuGVpuegit-14" value="Business" style="rounded=0;whiteSpace=wrap;html=1;fontSize=12;" parent="1" vertex="1">
          <mxGeometry x="120" y="299" width="120" height="31" as="geometry" />
        </mxCell>
        <mxCell id="UjUhAZu07TOuGVpuegit-22" style="edgeStyle=orthogonalEdgeStyle;rounded=0;orthogonalLoop=1;jettySize=auto;html=1;exitX=0.5;exitY=0;exitDx=0;exitDy=0;entryX=0;entryY=0.5;entryDx=0;entryDy=0;fontSize=12;" parent="1" source="UjUhAZu07TOuGVpuegit-15" target="UjUhAZu07TOuGVpuegit-16" edge="1">
          <mxGeometry relative="1" as="geometry">
            <Array as="points">
              <mxPoint x="565" y="149.5" />
              <mxPoint x="600" y="149.5" />
            </Array>
          </mxGeometry>
        </mxCell>
        <mxCell id="UjUhAZu07TOuGVpuegit-23" style="edgeStyle=orthogonalEdgeStyle;rounded=0;orthogonalLoop=1;jettySize=auto;html=1;exitX=0.5;exitY=1;exitDx=0;exitDy=0;entryX=0;entryY=0.5;entryDx=0;entryDy=0;fontSize=12;" parent="1" source="UjUhAZu07TOuGVpuegit-15" target="UjUhAZu07TOuGVpuegit-17" edge="1">
          <mxGeometry relative="1" as="geometry">
            <Array as="points">
              <mxPoint x="565" y="207" />
            </Array>
          </mxGeometry>
        </mxCell>
        <mxCell id="UjUhAZu07TOuGVpuegit-15" value="" style="rhombus;whiteSpace=wrap;html=1;fontSize=17;" parent="1" vertex="1">
          <mxGeometry x="550" y="161.5" width="30" height="30" as="geometry" />
        </mxCell>
        <mxCell id="UjUhAZu07TOuGVpuegit-138" style="edgeStyle=orthogonalEdgeStyle;rounded=0;orthogonalLoop=1;jettySize=auto;html=1;exitX=1;exitY=0.5;exitDx=0;exitDy=0;entryX=0;entryY=0.5;entryDx=0;entryDy=0;fontSize=53;fontColor=#FF0000;" parent="1" source="UjUhAZu07TOuGVpuegit-16" target="9Nk0hv0ekXMGAtVD4ZqK-9" edge="1">
          <mxGeometry relative="1" as="geometry">
            <mxPoint x="1049" y="149" as="targetPoint" />
          </mxGeometry>
        </mxCell>
        <mxCell id="UjUhAZu07TOuGVpuegit-16" value="&amp;lt;100 EUR" style="rounded=0;whiteSpace=wrap;html=1;fontSize=12;" parent="1" vertex="1">
          <mxGeometry x="600" y="139" width="80" height="20" as="geometry" />
        </mxCell>
        <mxCell id="UjUhAZu07TOuGVpuegit-36" style="edgeStyle=orthogonalEdgeStyle;rounded=0;orthogonalLoop=1;jettySize=auto;html=1;exitX=1;exitY=0.5;exitDx=0;exitDy=0;entryX=0;entryY=0.5;entryDx=0;entryDy=0;fontSize=17;" parent="1" source="UjUhAZu07TOuGVpuegit-17" target="UjUhAZu07TOuGVpuegit-34" edge="1">
          <mxGeometry relative="1" as="geometry" />
        </mxCell>
        <mxCell id="UjUhAZu07TOuGVpuegit-17" value="&amp;gt;100 EUR" style="rounded=0;whiteSpace=wrap;html=1;fontSize=12;" parent="1" vertex="1">
          <mxGeometry x="600" y="196.5" width="80" height="21" as="geometry" />
        </mxCell>
        <mxCell id="UjUhAZu07TOuGVpuegit-24" value="Approved" style="rounded=1;whiteSpace=wrap;html=1;fontSize=12;arcSize=50;" parent="1" vertex="1">
          <mxGeometry x="1560" y="581.25" width="120" height="60" as="geometry" />
        </mxCell>
        <mxCell id="9Nk0hv0ekXMGAtVD4ZqK-2" style="edgeStyle=orthogonalEdgeStyle;rounded=0;orthogonalLoop=1;jettySize=auto;html=1;exitX=0.5;exitY=0;exitDx=0;exitDy=0;entryX=0;entryY=0.5;entryDx=0;entryDy=0;fontSize=53;fontColor=#FF0000;" edge="1" parent="1" source="UjUhAZu07TOuGVpuegit-26" target="UjUhAZu07TOuGVpuegit-14">
          <mxGeometry relative="1" as="geometry" />
        </mxCell>
        <mxCell id="9Nk0hv0ekXMGAtVD4ZqK-3" style="edgeStyle=orthogonalEdgeStyle;rounded=0;orthogonalLoop=1;jettySize=auto;html=1;exitX=0.5;exitY=1;exitDx=0;exitDy=0;entryX=0;entryY=0.5;entryDx=0;entryDy=0;fontSize=53;fontColor=#FF0000;" edge="1" parent="1" source="UjUhAZu07TOuGVpuegit-26" target="UjUhAZu07TOuGVpuegit-13">
          <mxGeometry relative="1" as="geometry" />
        </mxCell>
        <mxCell id="UjUhAZu07TOuGVpuegit-26" value="Recipient" style="rhombus;whiteSpace=wrap;html=1;" parent="1" vertex="1">
          <mxGeometry x="-30" y="419.5" width="100" height="49" as="geometry" />
        </mxCell>
        <mxCell id="UjUhAZu07TOuGVpuegit-37" style="edgeStyle=orthogonalEdgeStyle;rounded=0;orthogonalLoop=1;jettySize=auto;html=1;exitX=1;exitY=0.5;exitDx=0;exitDy=0;entryX=0.75;entryY=0;entryDx=0;entryDy=0;fontSize=17;" parent="1" source="UjUhAZu07TOuGVpuegit-34" target="UjUhAZu07TOuGVpuegit-24" edge="1">
          <mxGeometry relative="1" as="geometry" />
        </mxCell>
        <mxCell id="UjUhAZu07TOuGVpuegit-34" value="Manager" style="rounded=0;whiteSpace=wrap;html=1;fontSize=12;" parent="1" vertex="1">
          <mxGeometry x="870" y="191.5" width="120" height="31" as="geometry" />
        </mxCell>
        <mxCell id="UjUhAZu07TOuGVpuegit-35" value="Notify" style="text;html=1;strokeColor=none;fillColor=none;align=center;verticalAlign=top;whiteSpace=wrap;rounded=0;fontSize=17;horizontal=1;" parent="1" vertex="1">
          <mxGeometry x="1200" y="50" width="110" height="40" as="geometry" />
        </mxCell>
        <mxCell id="UjUhAZu07TOuGVpuegit-38" style="edgeStyle=orthogonalEdgeStyle;rounded=0;orthogonalLoop=1;jettySize=auto;html=1;exitX=0.5;exitY=0;exitDx=0;exitDy=0;entryX=0;entryY=0.5;entryDx=0;entryDy=0;fontSize=12;" parent="1" source="UjUhAZu07TOuGVpuegit-40" target="UjUhAZu07TOuGVpuegit-41" edge="1">
          <mxGeometry relative="1" as="geometry">
            <Array as="points">
              <mxPoint x="590" y="415.25" />
              <mxPoint x="625" y="415.25" />
            </Array>
          </mxGeometry>
        </mxCell>
        <mxCell id="UjUhAZu07TOuGVpuegit-39" style="edgeStyle=orthogonalEdgeStyle;rounded=0;orthogonalLoop=1;jettySize=auto;html=1;exitX=0.5;exitY=1;exitDx=0;exitDy=0;entryX=0;entryY=0.5;entryDx=0;entryDy=0;fontSize=12;" parent="1" source="UjUhAZu07TOuGVpuegit-40" target="UjUhAZu07TOuGVpuegit-42" edge="1">
          <mxGeometry relative="1" as="geometry">
            <Array as="points">
              <mxPoint x="570" y="472.25" />
            </Array>
          </mxGeometry>
        </mxCell>
        <mxCell id="UjUhAZu07TOuGVpuegit-40" value="" style="rhombus;whiteSpace=wrap;html=1;fontSize=17;" parent="1" vertex="1">
          <mxGeometry x="555" y="432.25" width="30" height="30" as="geometry" />
        </mxCell>
        <mxCell id="UjUhAZu07TOuGVpuegit-87" style="edgeStyle=orthogonalEdgeStyle;rounded=0;orthogonalLoop=1;jettySize=auto;html=1;exitX=1;exitY=0.5;exitDx=0;exitDy=0;entryX=0;entryY=0.5;entryDx=0;entryDy=0;fontSize=17;" parent="1" source="UjUhAZu07TOuGVpuegit-41" target="UjUhAZu07TOuGVpuegit-66" edge="1">
          <mxGeometry relative="1" as="geometry">
            <Array as="points">
              <mxPoint x="720" y="415" />
              <mxPoint x="720" y="405" />
            </Array>
          </mxGeometry>
        </mxCell>
        <mxCell id="UjUhAZu07TOuGVpuegit-41" value="&amp;lt;250 EUR" style="rounded=0;whiteSpace=wrap;html=1;fontSize=12;" parent="1" vertex="1">
          <mxGeometry x="625" y="404.75" width="80" height="20" as="geometry" />
        </mxCell>
        <mxCell id="UjUhAZu07TOuGVpuegit-88" style="edgeStyle=orthogonalEdgeStyle;rounded=0;orthogonalLoop=1;jettySize=auto;html=1;exitX=1;exitY=0.5;exitDx=0;exitDy=0;entryX=0;entryY=0.5;entryDx=0;entryDy=0;fontSize=17;" parent="1" source="UjUhAZu07TOuGVpuegit-42" target="UjUhAZu07TOuGVpuegit-52" edge="1">
          <mxGeometry relative="1" as="geometry">
            <Array as="points">
              <mxPoint x="720" y="473" />
              <mxPoint x="720" y="579" />
            </Array>
          </mxGeometry>
        </mxCell>
        <mxCell id="UjUhAZu07TOuGVpuegit-42" value="&amp;gt;250 EUR" style="rounded=0;whiteSpace=wrap;html=1;fontSize=12;" parent="1" vertex="1">
          <mxGeometry x="625" y="462.25" width="80" height="21" as="geometry" />
        </mxCell>
        <mxCell id="UjUhAZu07TOuGVpuegit-50" style="edgeStyle=orthogonalEdgeStyle;rounded=0;orthogonalLoop=1;jettySize=auto;html=1;exitX=0.5;exitY=0;exitDx=0;exitDy=0;entryX=0;entryY=0.5;entryDx=0;entryDy=0;fontSize=12;" parent="1" source="UjUhAZu07TOuGVpuegit-52" target="UjUhAZu07TOuGVpuegit-53" edge="1">
          <mxGeometry relative="1" as="geometry">
            <Array as="points">
              <mxPoint x="755" y="531" />
            </Array>
          </mxGeometry>
        </mxCell>
        <mxCell id="UjUhAZu07TOuGVpuegit-51" style="edgeStyle=orthogonalEdgeStyle;rounded=0;orthogonalLoop=1;jettySize=auto;html=1;exitX=0.5;exitY=1;exitDx=0;exitDy=0;entryX=0;entryY=0.5;entryDx=0;entryDy=0;fontSize=12;" parent="1" source="UjUhAZu07TOuGVpuegit-52" target="UjUhAZu07TOuGVpuegit-54" edge="1">
          <mxGeometry relative="1" as="geometry">
            <Array as="points">
              <mxPoint x="755" y="611" />
            </Array>
          </mxGeometry>
        </mxCell>
        <mxCell id="UjUhAZu07TOuGVpuegit-52" value="" style="rhombus;whiteSpace=wrap;html=1;fontSize=17;" parent="1" vertex="1">
          <mxGeometry x="740" y="564" width="30" height="30" as="geometry" />
        </mxCell>
        <mxCell id="UjUhAZu07TOuGVpuegit-59" style="edgeStyle=orthogonalEdgeStyle;rounded=0;orthogonalLoop=1;jettySize=auto;html=1;exitX=1;exitY=0.5;exitDx=0;exitDy=0;fontSize=17;entryX=0;entryY=0.5;entryDx=0;entryDy=0;" parent="1" source="UjUhAZu07TOuGVpuegit-53" target="UjUhAZu07TOuGVpuegit-58" edge="1">
          <mxGeometry relative="1" as="geometry">
            <Array as="points">
              <mxPoint x="870" y="531" />
              <mxPoint x="870" y="531" />
            </Array>
          </mxGeometry>
        </mxCell>
        <mxCell id="UjUhAZu07TOuGVpuegit-53" value="Yes" style="rounded=0;whiteSpace=wrap;html=1;fontSize=12;" parent="1" vertex="1">
          <mxGeometry x="810" y="521" width="40" height="20" as="geometry" />
        </mxCell>
        <mxCell id="UjUhAZu07TOuGVpuegit-62" style="edgeStyle=orthogonalEdgeStyle;rounded=0;orthogonalLoop=1;jettySize=auto;html=1;exitX=1;exitY=0.5;exitDx=0;exitDy=0;entryX=0;entryY=0.5;entryDx=0;entryDy=0;fontSize=17;" parent="1" source="UjUhAZu07TOuGVpuegit-54" target="UjUhAZu07TOuGVpuegit-56" edge="1">
          <mxGeometry relative="1" as="geometry" />
        </mxCell>
        <mxCell id="UjUhAZu07TOuGVpuegit-54" value="No" style="rounded=0;whiteSpace=wrap;html=1;fontSize=12;" parent="1" vertex="1">
          <mxGeometry x="810" y="600.75" width="40" height="21" as="geometry" />
        </mxCell>
        <mxCell id="UjUhAZu07TOuGVpuegit-84" style="edgeStyle=orthogonalEdgeStyle;rounded=0;orthogonalLoop=1;jettySize=auto;html=1;exitX=1;exitY=0.5;exitDx=0;exitDy=0;fontSize=17;entryX=0;entryY=0.25;entryDx=0;entryDy=0;" parent="1" source="UjUhAZu07TOuGVpuegit-55" target="UjUhAZu07TOuGVpuegit-24" edge="1">
          <mxGeometry relative="1" as="geometry">
            <mxPoint x="1360" y="580" as="targetPoint" />
            <Array as="points">
              <mxPoint x="1460" y="531" />
              <mxPoint x="1460" y="596" />
            </Array>
          </mxGeometry>
        </mxCell>
        <mxCell id="UjUhAZu07TOuGVpuegit-55" value="Legal" style="rounded=0;whiteSpace=wrap;html=1;fontSize=12;" parent="1" vertex="1">
          <mxGeometry x="1030" y="515.5" width="120" height="31" as="geometry" />
        </mxCell>
        <mxCell id="UjUhAZu07TOuGVpuegit-63" style="edgeStyle=orthogonalEdgeStyle;rounded=0;orthogonalLoop=1;jettySize=auto;html=1;exitX=1;exitY=0.5;exitDx=0;exitDy=0;fontSize=17;" parent="1" source="UjUhAZu07TOuGVpuegit-56" target="UjUhAZu07TOuGVpuegit-57" edge="1">
          <mxGeometry relative="1" as="geometry" />
        </mxCell>
        <mxCell id="UjUhAZu07TOuGVpuegit-56" value="Manager" style="rounded=0;whiteSpace=wrap;html=1;fontSize=12;" parent="1" vertex="1">
          <mxGeometry x="880" y="595.75" width="120" height="31" as="geometry" />
        </mxCell>
        <mxCell id="UjUhAZu07TOuGVpuegit-86" style="edgeStyle=orthogonalEdgeStyle;rounded=0;orthogonalLoop=1;jettySize=auto;html=1;exitX=1;exitY=0.5;exitDx=0;exitDy=0;entryX=0;entryY=0.5;entryDx=0;entryDy=0;fontSize=17;" parent="1" source="UjUhAZu07TOuGVpuegit-57" target="UjUhAZu07TOuGVpuegit-24" edge="1">
          <mxGeometry relative="1" as="geometry" />
        </mxCell>
        <mxCell id="UjUhAZu07TOuGVpuegit-57" value="Legal" style="rounded=0;whiteSpace=wrap;html=1;fontSize=12;" parent="1" vertex="1">
          <mxGeometry x="1240" y="595.75" width="120" height="31" as="geometry" />
        </mxCell>
        <mxCell id="UjUhAZu07TOuGVpuegit-129" style="edgeStyle=orthogonalEdgeStyle;rounded=0;orthogonalLoop=1;jettySize=auto;html=1;exitX=1;exitY=0.5;exitDx=0;exitDy=0;entryX=0;entryY=0.5;entryDx=0;entryDy=0;fontSize=17;" parent="1" source="UjUhAZu07TOuGVpuegit-58" target="UjUhAZu07TOuGVpuegit-55" edge="1">
          <mxGeometry relative="1" as="geometry" />
        </mxCell>
        <mxCell id="UjUhAZu07TOuGVpuegit-58" value="Manager" style="rounded=0;whiteSpace=wrap;html=1;fontSize=12;" parent="1" vertex="1">
          <mxGeometry x="880" y="515.5" width="120" height="31" as="geometry" />
        </mxCell>
        <mxCell id="UjUhAZu07TOuGVpuegit-64" style="edgeStyle=orthogonalEdgeStyle;rounded=0;orthogonalLoop=1;jettySize=auto;html=1;exitX=0.5;exitY=0;exitDx=0;exitDy=0;entryX=0;entryY=0.5;entryDx=0;entryDy=0;fontSize=12;" parent="1" source="UjUhAZu07TOuGVpuegit-66" target="UjUhAZu07TOuGVpuegit-69" edge="1">
          <mxGeometry relative="1" as="geometry">
            <Array as="points">
              <mxPoint x="755" y="380" />
            </Array>
          </mxGeometry>
        </mxCell>
        <mxCell id="UjUhAZu07TOuGVpuegit-65" style="edgeStyle=orthogonalEdgeStyle;rounded=0;orthogonalLoop=1;jettySize=auto;html=1;exitX=0.5;exitY=1;exitDx=0;exitDy=0;entryX=0;entryY=0.5;entryDx=0;entryDy=0;fontSize=12;" parent="1" source="UjUhAZu07TOuGVpuegit-66" target="UjUhAZu07TOuGVpuegit-71" edge="1">
          <mxGeometry relative="1" as="geometry">
            <Array as="points">
              <mxPoint x="755" y="444" />
            </Array>
          </mxGeometry>
        </mxCell>
        <mxCell id="UjUhAZu07TOuGVpuegit-66" value="" style="rhombus;whiteSpace=wrap;html=1;fontSize=17;" parent="1" vertex="1">
          <mxGeometry x="740" y="390" width="30" height="30" as="geometry" />
        </mxCell>
        <mxCell id="UjUhAZu07TOuGVpuegit-67" style="edgeStyle=orthogonalEdgeStyle;rounded=0;orthogonalLoop=1;jettySize=auto;html=1;exitX=1;exitY=0.5;exitDx=0;exitDy=0;fontSize=17;entryX=0;entryY=0.5;entryDx=0;entryDy=0;" parent="1" source="UjUhAZu07TOuGVpuegit-69" target="UjUhAZu07TOuGVpuegit-76" edge="1">
          <mxGeometry relative="1" as="geometry">
            <Array as="points">
              <mxPoint x="870" y="380" />
              <mxPoint x="870" y="380" />
            </Array>
          </mxGeometry>
        </mxCell>
        <mxCell id="UjUhAZu07TOuGVpuegit-69" value="Yes" style="rounded=0;whiteSpace=wrap;html=1;fontSize=12;" parent="1" vertex="1">
          <mxGeometry x="810" y="370" width="40" height="20" as="geometry" />
        </mxCell>
        <mxCell id="UjUhAZu07TOuGVpuegit-130" style="edgeStyle=orthogonalEdgeStyle;rounded=0;orthogonalLoop=1;jettySize=auto;html=1;exitX=1;exitY=0.25;exitDx=0;exitDy=0;fontSize=17;entryX=0;entryY=0.5;entryDx=0;entryDy=0;" parent="1" source="UjUhAZu07TOuGVpuegit-71" target="9Nk0hv0ekXMGAtVD4ZqK-10" edge="1">
          <mxGeometry relative="1" as="geometry">
            <mxPoint x="1110" y="439" as="targetPoint" />
          </mxGeometry>
        </mxCell>
        <mxCell id="UjUhAZu07TOuGVpuegit-71" value="No" style="rounded=0;whiteSpace=wrap;html=1;fontSize=12;" parent="1" vertex="1">
          <mxGeometry x="810" y="433.5" width="40" height="21" as="geometry" />
        </mxCell>
        <mxCell id="UjUhAZu07TOuGVpuegit-80" style="edgeStyle=orthogonalEdgeStyle;rounded=0;orthogonalLoop=1;jettySize=auto;html=1;exitX=1;exitY=0.5;exitDx=0;exitDy=0;fontSize=17;entryX=0.25;entryY=0;entryDx=0;entryDy=0;" parent="1" source="UjUhAZu07TOuGVpuegit-72" edge="1" target="UjUhAZu07TOuGVpuegit-24">
          <mxGeometry relative="1" as="geometry">
            <mxPoint x="1590" y="510" as="targetPoint" />
          </mxGeometry>
        </mxCell>
        <mxCell id="UjUhAZu07TOuGVpuegit-72" value="Legal" style="rounded=0;whiteSpace=wrap;html=1;fontSize=12;" parent="1" vertex="1">
          <mxGeometry x="1030" y="364.5" width="120" height="31" as="geometry" />
        </mxCell>
        <mxCell id="UjUhAZu07TOuGVpuegit-79" style="edgeStyle=orthogonalEdgeStyle;rounded=0;orthogonalLoop=1;jettySize=auto;html=1;exitX=1;exitY=0.5;exitDx=0;exitDy=0;entryX=0;entryY=0.5;entryDx=0;entryDy=0;fontSize=17;" parent="1" source="UjUhAZu07TOuGVpuegit-76" target="UjUhAZu07TOuGVpuegit-72" edge="1">
          <mxGeometry relative="1" as="geometry">
            <mxPoint x="1361" y="377.48575000000005" as="targetPoint" />
          </mxGeometry>
        </mxCell>
        <mxCell id="UjUhAZu07TOuGVpuegit-76" value="Manager" style="rounded=0;whiteSpace=wrap;html=1;fontSize=12;" parent="1" vertex="1">
          <mxGeometry x="880" y="364.5" width="120" height="31" as="geometry" />
        </mxCell>
        <mxCell id="UjUhAZu07TOuGVpuegit-89" style="edgeStyle=orthogonalEdgeStyle;rounded=0;orthogonalLoop=1;jettySize=auto;html=1;exitX=0.5;exitY=0;exitDx=0;exitDy=0;entryX=0;entryY=0.5;entryDx=0;entryDy=0;fontSize=12;" parent="1" source="UjUhAZu07TOuGVpuegit-91" target="UjUhAZu07TOuGVpuegit-93" edge="1">
          <mxGeometry relative="1" as="geometry">
            <Array as="points">
              <mxPoint x="590" y="736.25" />
              <mxPoint x="625" y="736.25" />
            </Array>
          </mxGeometry>
        </mxCell>
        <mxCell id="UjUhAZu07TOuGVpuegit-90" style="edgeStyle=orthogonalEdgeStyle;rounded=0;orthogonalLoop=1;jettySize=auto;html=1;exitX=0.5;exitY=1;exitDx=0;exitDy=0;entryX=0;entryY=0.5;entryDx=0;entryDy=0;fontSize=12;" parent="1" source="UjUhAZu07TOuGVpuegit-91" target="UjUhAZu07TOuGVpuegit-95" edge="1">
          <mxGeometry relative="1" as="geometry">
            <Array as="points">
              <mxPoint x="570" y="793.25" />
            </Array>
          </mxGeometry>
        </mxCell>
        <mxCell id="UjUhAZu07TOuGVpuegit-91" value="" style="rhombus;whiteSpace=wrap;html=1;fontSize=17;" parent="1" vertex="1">
          <mxGeometry x="555" y="753.25" width="30" height="30" as="geometry" />
        </mxCell>
        <mxCell id="UjUhAZu07TOuGVpuegit-92" style="edgeStyle=orthogonalEdgeStyle;rounded=0;orthogonalLoop=1;jettySize=auto;html=1;exitX=1;exitY=0.5;exitDx=0;exitDy=0;entryX=0;entryY=0.5;entryDx=0;entryDy=0;fontSize=17;" parent="1" source="UjUhAZu07TOuGVpuegit-93" target="UjUhAZu07TOuGVpuegit-113" edge="1">
          <mxGeometry relative="1" as="geometry">
            <Array as="points">
              <mxPoint x="720" y="736" />
              <mxPoint x="720" y="726" />
            </Array>
          </mxGeometry>
        </mxCell>
        <mxCell id="UjUhAZu07TOuGVpuegit-93" value="&amp;lt;250 EUR" style="rounded=0;whiteSpace=wrap;html=1;fontSize=12;" parent="1" vertex="1">
          <mxGeometry x="625" y="725.75" width="80" height="20" as="geometry" />
        </mxCell>
        <mxCell id="UjUhAZu07TOuGVpuegit-94" style="edgeStyle=orthogonalEdgeStyle;rounded=0;orthogonalLoop=1;jettySize=auto;html=1;exitX=1;exitY=0.5;exitDx=0;exitDy=0;entryX=0;entryY=0.5;entryDx=0;entryDy=0;fontSize=17;" parent="1" source="UjUhAZu07TOuGVpuegit-95" target="UjUhAZu07TOuGVpuegit-98" edge="1">
          <mxGeometry relative="1" as="geometry">
            <Array as="points">
              <mxPoint x="720" y="794" />
              <mxPoint x="720" y="900" />
            </Array>
          </mxGeometry>
        </mxCell>
        <mxCell id="UjUhAZu07TOuGVpuegit-95" value="&amp;gt;250 EUR" style="rounded=0;whiteSpace=wrap;html=1;fontSize=12;" parent="1" vertex="1">
          <mxGeometry x="625" y="783.25" width="80" height="21" as="geometry" />
        </mxCell>
        <mxCell id="UjUhAZu07TOuGVpuegit-96" style="edgeStyle=orthogonalEdgeStyle;rounded=0;orthogonalLoop=1;jettySize=auto;html=1;exitX=0.5;exitY=0;exitDx=0;exitDy=0;entryX=0;entryY=0.5;entryDx=0;entryDy=0;fontSize=12;" parent="1" source="UjUhAZu07TOuGVpuegit-98" target="UjUhAZu07TOuGVpuegit-101" edge="1">
          <mxGeometry relative="1" as="geometry">
            <Array as="points">
              <mxPoint x="755" y="852" />
            </Array>
          </mxGeometry>
        </mxCell>
        <mxCell id="UjUhAZu07TOuGVpuegit-97" style="edgeStyle=orthogonalEdgeStyle;rounded=0;orthogonalLoop=1;jettySize=auto;html=1;exitX=0.5;exitY=1;exitDx=0;exitDy=0;entryX=0;entryY=0.5;entryDx=0;entryDy=0;fontSize=12;" parent="1" source="UjUhAZu07TOuGVpuegit-98" target="UjUhAZu07TOuGVpuegit-103" edge="1">
          <mxGeometry relative="1" as="geometry">
            <Array as="points">
              <mxPoint x="755" y="940.75" />
            </Array>
          </mxGeometry>
        </mxCell>
        <mxCell id="UjUhAZu07TOuGVpuegit-98" value="" style="rhombus;whiteSpace=wrap;html=1;fontSize=17;" parent="1" vertex="1">
          <mxGeometry x="740" y="885" width="30" height="30" as="geometry" />
        </mxCell>
        <mxCell id="UjUhAZu07TOuGVpuegit-99" style="edgeStyle=orthogonalEdgeStyle;rounded=0;orthogonalLoop=1;jettySize=auto;html=1;exitX=1;exitY=0.5;exitDx=0;exitDy=0;fontSize=17;entryX=0;entryY=0.5;entryDx=0;entryDy=0;" parent="1" source="UjUhAZu07TOuGVpuegit-105" target="UjUhAZu07TOuGVpuegit-110" edge="1">
          <mxGeometry relative="1" as="geometry">
            <Array as="points">
              <mxPoint x="1010" y="852" />
              <mxPoint x="1010" y="852" />
            </Array>
          </mxGeometry>
        </mxCell>
        <mxCell id="UjUhAZu07TOuGVpuegit-100" style="edgeStyle=orthogonalEdgeStyle;rounded=0;orthogonalLoop=1;jettySize=auto;html=1;exitX=1;exitY=0.5;exitDx=0;exitDy=0;entryX=0;entryY=0.5;entryDx=0;entryDy=0;fontSize=17;" parent="1" source="UjUhAZu07TOuGVpuegit-101" target="UjUhAZu07TOuGVpuegit-105" edge="1">
          <mxGeometry relative="1" as="geometry">
            <Array as="points">
              <mxPoint x="870" y="852" />
              <mxPoint x="870" y="852" />
            </Array>
          </mxGeometry>
        </mxCell>
        <mxCell id="UjUhAZu07TOuGVpuegit-101" value="Yes" style="rounded=0;whiteSpace=wrap;html=1;fontSize=12;" parent="1" vertex="1">
          <mxGeometry x="810" y="842" width="40" height="20" as="geometry" />
        </mxCell>
        <mxCell id="UjUhAZu07TOuGVpuegit-102" style="edgeStyle=orthogonalEdgeStyle;rounded=0;orthogonalLoop=1;jettySize=auto;html=1;exitX=1;exitY=0.5;exitDx=0;exitDy=0;entryX=0;entryY=0.5;entryDx=0;entryDy=0;fontSize=17;" parent="1" source="UjUhAZu07TOuGVpuegit-103" target="UjUhAZu07TOuGVpuegit-107" edge="1">
          <mxGeometry relative="1" as="geometry" />
        </mxCell>
        <mxCell id="UjUhAZu07TOuGVpuegit-103" value="No" style="rounded=0;whiteSpace=wrap;html=1;fontSize=12;" parent="1" vertex="1">
          <mxGeometry x="810" y="930.75" width="40" height="21" as="geometry" />
        </mxCell>
        <mxCell id="UjUhAZu07TOuGVpuegit-105" value="Manager" style="rounded=0;whiteSpace=wrap;html=1;fontSize=12;" parent="1" vertex="1">
          <mxGeometry x="880" y="836.5" width="120" height="31" as="geometry" />
        </mxCell>
        <mxCell id="UjUhAZu07TOuGVpuegit-106" style="edgeStyle=orthogonalEdgeStyle;rounded=0;orthogonalLoop=1;jettySize=auto;html=1;exitX=1;exitY=0.5;exitDx=0;exitDy=0;fontSize=17;" parent="1" source="UjUhAZu07TOuGVpuegit-107" target="UjUhAZu07TOuGVpuegit-108" edge="1">
          <mxGeometry relative="1" as="geometry" />
        </mxCell>
        <mxCell id="UjUhAZu07TOuGVpuegit-107" value="Manager" style="rounded=0;whiteSpace=wrap;html=1;fontSize=12;" parent="1" vertex="1">
          <mxGeometry x="880" y="924.25" width="120" height="31" as="geometry" />
        </mxCell>
        <mxCell id="UjUhAZu07TOuGVpuegit-136" style="edgeStyle=orthogonalEdgeStyle;rounded=0;orthogonalLoop=1;jettySize=auto;html=1;exitX=1;exitY=0.5;exitDx=0;exitDy=0;entryX=0.75;entryY=1;entryDx=0;entryDy=0;fontSize=53;fontColor=#FF0000;" parent="1" source="UjUhAZu07TOuGVpuegit-108" target="UjUhAZu07TOuGVpuegit-24" edge="1">
          <mxGeometry relative="1" as="geometry" />
        </mxCell>
        <mxCell id="UjUhAZu07TOuGVpuegit-108" value="Legal" style="rounded=0;whiteSpace=wrap;html=1;fontSize=12;" parent="1" vertex="1">
          <mxGeometry x="1240" y="924.25" width="120" height="31" as="geometry" />
        </mxCell>
        <mxCell id="UjUhAZu07TOuGVpuegit-109" style="edgeStyle=orthogonalEdgeStyle;rounded=0;orthogonalLoop=1;jettySize=auto;html=1;exitX=1;exitY=0.5;exitDx=0;exitDy=0;entryX=0.5;entryY=1;entryDx=0;entryDy=0;fontSize=17;" parent="1" source="UjUhAZu07TOuGVpuegit-110" target="UjUhAZu07TOuGVpuegit-24" edge="1">
          <mxGeometry relative="1" as="geometry">
            <mxPoint x="1360" y="816.9892500000005" as="targetPoint" />
          </mxGeometry>
        </mxCell>
        <mxCell id="UjUhAZu07TOuGVpuegit-110" value="Legal" style="rounded=0;whiteSpace=wrap;html=1;fontSize=12;" parent="1" vertex="1">
          <mxGeometry x="1030" y="836.5" width="120" height="31" as="geometry" />
        </mxCell>
        <mxCell id="UjUhAZu07TOuGVpuegit-111" style="edgeStyle=orthogonalEdgeStyle;rounded=0;orthogonalLoop=1;jettySize=auto;html=1;exitX=0.5;exitY=0;exitDx=0;exitDy=0;entryX=0;entryY=0.5;entryDx=0;entryDy=0;fontSize=12;" parent="1" source="UjUhAZu07TOuGVpuegit-113" target="UjUhAZu07TOuGVpuegit-116" edge="1">
          <mxGeometry relative="1" as="geometry">
            <Array as="points">
              <mxPoint x="755" y="701" />
            </Array>
          </mxGeometry>
        </mxCell>
        <mxCell id="UjUhAZu07TOuGVpuegit-112" style="edgeStyle=orthogonalEdgeStyle;rounded=0;orthogonalLoop=1;jettySize=auto;html=1;exitX=0.5;exitY=1;exitDx=0;exitDy=0;entryX=0;entryY=0.5;entryDx=0;entryDy=0;fontSize=12;" parent="1" source="UjUhAZu07TOuGVpuegit-113" target="UjUhAZu07TOuGVpuegit-117" edge="1">
          <mxGeometry relative="1" as="geometry">
            <Array as="points">
              <mxPoint x="755" y="765" />
            </Array>
          </mxGeometry>
        </mxCell>
        <mxCell id="UjUhAZu07TOuGVpuegit-113" value="" style="rhombus;whiteSpace=wrap;html=1;fontSize=17;" parent="1" vertex="1">
          <mxGeometry x="740" y="711" width="30" height="30" as="geometry" />
        </mxCell>
        <mxCell id="UjUhAZu07TOuGVpuegit-116" value="Yes" style="rounded=0;whiteSpace=wrap;html=1;fontSize=12;" parent="1" vertex="1">
          <mxGeometry x="810" y="691" width="40" height="20" as="geometry" />
        </mxCell>
        <mxCell id="UjUhAZu07TOuGVpuegit-132" style="edgeStyle=orthogonalEdgeStyle;rounded=0;orthogonalLoop=1;jettySize=auto;html=1;exitX=1;exitY=0.5;exitDx=0;exitDy=0;fontSize=53;fontColor=#FF0000;entryX=0.25;entryY=1;entryDx=0;entryDy=0;" parent="1" source="UjUhAZu07TOuGVpuegit-117" edge="1" target="UjUhAZu07TOuGVpuegit-24">
          <mxGeometry relative="1" as="geometry">
            <mxPoint x="1590" y="650" as="targetPoint" />
          </mxGeometry>
        </mxCell>
        <mxCell id="UjUhAZu07TOuGVpuegit-117" value="No" style="rounded=0;whiteSpace=wrap;html=1;fontSize=12;" parent="1" vertex="1">
          <mxGeometry x="810" y="754.5" width="40" height="21" as="geometry" />
        </mxCell>
        <mxCell id="UjUhAZu07TOuGVpuegit-124" style="edgeStyle=orthogonalEdgeStyle;rounded=0;orthogonalLoop=1;jettySize=auto;html=1;exitX=1;exitY=0.5;exitDx=0;exitDy=0;fontSize=17;entryX=0;entryY=0.5;entryDx=0;entryDy=0;" parent="1" source="UjUhAZu07TOuGVpuegit-126" target="UjUhAZu07TOuGVpuegit-128" edge="1">
          <mxGeometry relative="1" as="geometry">
            <Array as="points">
              <mxPoint x="1010" y="701" />
              <mxPoint x="1010" y="701" />
            </Array>
          </mxGeometry>
        </mxCell>
        <mxCell id="UjUhAZu07TOuGVpuegit-125" style="edgeStyle=orthogonalEdgeStyle;rounded=0;orthogonalLoop=1;jettySize=auto;html=1;exitX=1;exitY=0.5;exitDx=0;exitDy=0;entryX=0;entryY=0.5;entryDx=0;entryDy=0;fontSize=17;" parent="1" source="UjUhAZu07TOuGVpuegit-116" target="UjUhAZu07TOuGVpuegit-126" edge="1">
          <mxGeometry relative="1" as="geometry">
            <Array as="points">
              <mxPoint x="870" y="701" />
              <mxPoint x="870" y="701" />
            </Array>
            <mxPoint x="850" y="705.01" as="sourcePoint" />
          </mxGeometry>
        </mxCell>
        <mxCell id="UjUhAZu07TOuGVpuegit-126" value="Manager" style="rounded=0;whiteSpace=wrap;html=1;fontSize=12;" parent="1" vertex="1">
          <mxGeometry x="880" y="685.5" width="120" height="31" as="geometry" />
        </mxCell>
        <mxCell id="UjUhAZu07TOuGVpuegit-127" style="edgeStyle=orthogonalEdgeStyle;rounded=0;orthogonalLoop=1;jettySize=auto;html=1;exitX=1;exitY=0.5;exitDx=0;exitDy=0;entryX=0;entryY=0.75;entryDx=0;entryDy=0;fontSize=17;" parent="1" source="UjUhAZu07TOuGVpuegit-128" target="UjUhAZu07TOuGVpuegit-24" edge="1">
          <mxGeometry relative="1" as="geometry">
            <mxPoint x="1360" y="669.9992500000005" as="targetPoint" />
            <Array as="points">
              <mxPoint x="1460" y="705" />
              <mxPoint x="1460" y="626" />
            </Array>
          </mxGeometry>
        </mxCell>
        <mxCell id="UjUhAZu07TOuGVpuegit-128" value="Legal" style="rounded=0;whiteSpace=wrap;html=1;fontSize=12;" parent="1" vertex="1">
          <mxGeometry x="1030" y="685.5" width="120" height="31" as="geometry" />
        </mxCell>
        <mxCell id="9Nk0hv0ekXMGAtVD4ZqK-4" style="edgeStyle=orthogonalEdgeStyle;rounded=0;orthogonalLoop=1;jettySize=auto;html=1;exitX=1;exitY=0.5;exitDx=0;exitDy=0;fontSize=17;entryX=0;entryY=0.5;entryDx=0;entryDy=0;" edge="1" parent="1" source="9Nk0hv0ekXMGAtVD4ZqK-5" target="9Nk0hv0ekXMGAtVD4ZqK-6">
          <mxGeometry relative="1" as="geometry">
            <Array as="points">
              <mxPoint x="1010" y="1025.5" />
              <mxPoint x="1010" y="1025.5" />
            </Array>
          </mxGeometry>
        </mxCell>
        <mxCell id="9Nk0hv0ekXMGAtVD4ZqK-5" value="Legal" style="rounded=0;whiteSpace=wrap;html=1;fontSize=12;" vertex="1" parent="1">
          <mxGeometry x="880" y="1010" width="120" height="31" as="geometry" />
        </mxCell>
        <mxCell id="9Nk0hv0ekXMGAtVD4ZqK-13" style="edgeStyle=orthogonalEdgeStyle;rounded=0;orthogonalLoop=1;jettySize=auto;html=1;exitX=1;exitY=0.5;exitDx=0;exitDy=0;fontSize=53;fontColor=#FF0000;entryX=0.917;entryY=0.979;entryDx=0;entryDy=0;entryPerimeter=0;" edge="1" parent="1" source="9Nk0hv0ekXMGAtVD4ZqK-6" target="UjUhAZu07TOuGVpuegit-24">
          <mxGeometry relative="1" as="geometry">
            <mxPoint x="1690" y="670" as="targetPoint" />
          </mxGeometry>
        </mxCell>
        <mxCell id="9Nk0hv0ekXMGAtVD4ZqK-6" value="&lt;div style=&quot;box-sizing: border-box ; font-family: &amp;#34;segoe ui&amp;#34; , , &amp;#34;apple color emoji&amp;#34; , &amp;#34;segoe ui emoji&amp;#34; , sans-serif ; font-size: 14px ; font-style: normal ; font-weight: 400 ; letter-spacing: normal ; text-indent: 0px ; text-transform: none ; word-spacing: 0px&quot;&gt;MD/GM&lt;/div&gt;" style="rounded=0;whiteSpace=wrap;html=1;fontSize=12;" vertex="1" parent="1">
          <mxGeometry x="1030" y="1010" width="120" height="31" as="geometry" />
        </mxCell>
        <mxCell id="9Nk0hv0ekXMGAtVD4ZqK-11" style="edgeStyle=orthogonalEdgeStyle;rounded=0;orthogonalLoop=1;jettySize=auto;html=1;exitX=1;exitY=0.5;exitDx=0;exitDy=0;entryX=0.925;entryY=0.145;entryDx=0;entryDy=0;entryPerimeter=0;fontSize=53;fontColor=#FF0000;" edge="1" parent="1" source="9Nk0hv0ekXMGAtVD4ZqK-9" target="UjUhAZu07TOuGVpuegit-24">
          <mxGeometry relative="1" as="geometry" />
        </mxCell>
        <mxCell id="9Nk0hv0ekXMGAtVD4ZqK-9" value="Coordinator" style="rounded=0;whiteSpace=wrap;html=1;fontSize=12;" vertex="1" parent="1">
          <mxGeometry x="1240" y="133.5" width="120" height="31" as="geometry" />
        </mxCell>
        <mxCell id="9Nk0hv0ekXMGAtVD4ZqK-12" style="edgeStyle=orthogonalEdgeStyle;rounded=0;orthogonalLoop=1;jettySize=auto;html=1;exitX=1;exitY=0.5;exitDx=0;exitDy=0;entryX=0.121;entryY=0.086;entryDx=0;entryDy=0;entryPerimeter=0;fontSize=53;fontColor=#FF0000;" edge="1" parent="1" source="9Nk0hv0ekXMGAtVD4ZqK-10" target="UjUhAZu07TOuGVpuegit-24">
          <mxGeometry relative="1" as="geometry" />
        </mxCell>
        <mxCell id="9Nk0hv0ekXMGAtVD4ZqK-10" value="Coordinator" style="rounded=0;whiteSpace=wrap;html=1;fontSize=12;" vertex="1" parent="1">
          <mxGeometry x="1240" y="423.5" width="120" height="31" as="geometry" />
        </mxCell>
        <mxCell id="9Nk0hv0ekXMGAtVD4ZqK-14" value="Coordinator" style="rounded=0;whiteSpace=wrap;html=1;fontSize=12;" vertex="1" parent="1">
          <mxGeometry x="1240" y="313.5" width="120" height="31" as="geometry" />
        </mxCell>
        <mxCell id="9Nk0hv0ekXMGAtVD4ZqK-15" value="" style="edgeStyle=orthogonalEdgeStyle;rounded=0;orthogonalLoop=1;jettySize=auto;html=1;exitX=1;exitY=0.5;exitDx=0;exitDy=0;fontSize=12;entryX=0;entryY=0.5;entryDx=0;entryDy=0;endArrow=none;" edge="1" parent="1" source="c1VsCLN2mkpz4TLPh9um-5" target="9Nk0hv0ekXMGAtVD4ZqK-14">
          <mxGeometry relative="1" as="geometry">
            <mxPoint x="1620" y="581.25" as="targetPoint" />
            <mxPoint x="530.0000000000005" y="329" as="sourcePoint" />
          </mxGeometry>
        </mxCell>
      </root>
    </mxGraphModel>
  </diagram>
</mxfile>
